# xmcd
#
# Track frame offsets: 
#        150
#        17895
#        36030
#        57568
#        74333
#        100778
#        118998
#        142358
#        157710
#        190998
#
# Disc length: 2850 seconds
#
# Revision: 0
# Processed by: cddbd v1.5PL3 Copyright (c) Steve Scherf et al.
# Submitted via: ExactAudioCopy v0.95a1
#
DISCID=910b200a
DTITLE=Maggie Beers and Julie Mark - Lunatic Tango
DYEAR=1993
DGENRE=Folk
TTITLE0=You've Got The Light
TTITLE1=Our Gardens
TTITLE2=Lunatic Tango
TTITLE3=Got To Get Away
TTITLE4=The Land Unknown
TTITLE5=If I COuld
TTITLE6=The South Side Of Town
TTITLE7=Tumbling Down
TTITLE8=If We Only Knew
TTITLE9=Good-Bye
EXTD=
EXTT0=
EXTT1=
EXTT2=
EXTT3=
EXTT4=
EXTT5=
EXTT6=
EXTT7=
EXTT8=
EXTT9=
PLAYORDER=
